<?xml version="1.0" encoding="utf-8"?>
<!-- Generator: Adobe Illustrator 15.1.0, SVG Export Plug-In . SVG Version: 6.00 Build 0)  -->
<!DOCTYPE svg PUBLIC "-//W3C//DTD SVG 1.1//EN" "http://www.w3.org/Graphics/SVG/1.1/DTD/svg11.dtd">
<svg version="1.1" xmlns="http://www.w3.org/2000/svg" xmlns:xlink="http://www.w3.org/1999/xlink" x="0px" y="0px" width="451px"
	 height="600px" viewBox="0 0 451 600" enable-background="new 0 0 451 600" xml:space="preserve">
<g id="background">
</g>
<g id="Layer_1">
	<line fill="none" stroke="#000000" stroke-width="3" stroke-miterlimit="10" x1="215.5" y1="28" x2="215.5" y2="545"/>
	<circle onclick="#svg-one" fill="#ededed" stroke="#000000" stroke-width="2" stroke-miterlimit="10" cx="216" cy="28" r="21"/>
	<rect x="70" y="21" fill="none" width="109" height="21"/>
	<text transform="matrix(1 0 0 1 99.7612 30.604)" font-family="'ITCFranklinGothicStd-Demi'" font-size="14">Winter 2017</text>
	<rect x="254" y="21" fill="none" width="166" height="21"/>
	<text transform="matrix(1 0 0 1 254 30.604)" font-family="'ITCFranklinGothicStd-Demi'" font-size="14">Project Launch</text>
	<circle onclick="#svg-two" fill="#ededed" stroke="#000000" stroke-width="2" stroke-miterlimit="10" cx="216" cy="131" r="21"/>
	<rect x="31" y="123.9" fill="none" width="148" height="21"/>
	<text transform="matrix(1 0 0 1 66.4419 133.5039)" font-family="'ITCFranklinGothicStd-Demi'" font-size="14">Early Spring 2017</text>
	<rect x="254" y="123.9" fill="none" width="148" height="21"/>
	<text transform="matrix(1 0 0 1 254 133.5039)" font-family="'ITCFranklinGothicStd-Demi'" font-size="14">Factbook </text>
	
		<circle onclick="#svg-three" fill="#ededed" stroke="#000000" stroke-width="2" stroke-miterlimit="10" cx="216" cy="234.8" r="21"/>
	<rect x="29" y="229.3" fill="none" width="150" height="21"/>
	<text transform="matrix(1 0 0 1 69.8018 238.9038)" font-family="'ITCFranklinGothicStd-Demi'" font-size="14">Late Spring 2017</text>
	<rect x="254" y="229.3" fill="none" width="177" height="21"/>
	<text transform="matrix(1 0 0 1 254 238.9038)" font-family="'ITCFranklinGothicStd-Demi'" font-size="14">Vision Development</text>
	
		<circle onclick="#svg-four" fill="#ededed" stroke="#000000" stroke-width="2" stroke-miterlimit="10" cx="216" cy="338.2" r="21"/>
	<rect x="29" y="331.7" fill="none" width="150" height="21"/>
	<text transform="matrix(1 0 0 1 89.9614 341.3047)" font-family="'ITCFranklinGothicStd-Demi'" font-size="14">Summer 2017</text>
	<rect x="254" y="331.7" fill="none" width="150" height="21"/>
	<text transform="matrix(1 0 0 1 254 341.3047)" font-family="'ITCFranklinGothicStd-Demi'" font-size="14">Concept Design</text>
	
		<circle onclick="#svg-five" fill="#ededed" stroke="#000000" stroke-width="2" stroke-miterlimit="10" cx="216" cy="441.6" r="21"/>
	<rect x="-11" y="435.1" fill="none" width="190" height="21"/>
	<text transform="matrix(1 0 0 1 58.3218 444.7041)" font-family="'ITCFranklinGothicStd-Demi'" font-size="14">Late Summer 2017</text>
	<rect x="254" y="435.1" fill="none" width="245" height="21"/>
	<text transform="matrix(1 0 0 1 254 444.7031)" font-family="'ITCFranklinGothicStd-Demi'" font-size="14">Draft Proposal</text>
	<circle onclick="#svg-six" fill="#ededed" stroke="#000000" stroke-width="2" stroke-miterlimit="10" cx="216" cy="545" r="21"/>
	<rect x="29" y="538.5" fill="none" width="150" height="21"/>
	<text transform="matrix(1 0 0 1 118.8008 548.1035)" font-family="'ITCFranklinGothicStd-Demi'" font-size="14">Fall 2017</text>
	<rect x="254" y="538.5" fill="none" width="150" height="21"/>
	<text transform="matrix(1 0 0 1 254 548.1035)" font-family="'ITCFranklinGothicStd-Demi'" font-size="14">Final Report</text>
	<rect x="254" y="41" fill="none" width="173" height="108"/>
	<text transform="matrix(1 0 0 1 254 49.2319)"><tspan x="0" y="0" font-family="'ITCFranklinGothicStd-Book'" font-size="12">Plan Downtown begins with </tspan><tspan x="0" y="14.4" font-family="'ITCFranklinGothicStd-Book'" font-size="12">research into existing condi</tspan><tspan x="144.232" y="14.4" font-family="'ITCFranklinGothicStd-Book'" font-size="12">-</tspan><tspan x="0" y="28.8" font-family="'ITCFranklinGothicStd-Book'" font-size="12">tions, key issues, and project </tspan><tspan x="0" y="43.2" font-family="'ITCFranklinGothicStd-Book'" font-size="12">goals.</tspan></text>
	<rect x="254" y="142.3" fill="none" width="173" height="108"/>
	<text transform="matrix(1 0 0 1 254 150.5317)"><tspan x="0" y="0" font-family="'ITCFranklinGothicStd-Book'" font-size="12">Based on research and stake</tspan><tspan x="154.551" y="0" font-family="'ITCFranklinGothicStd-Book'" font-size="12">-</tspan><tspan x="0" y="14.4" font-family="'ITCFranklinGothicStd-Book'" font-size="12">holder engagement, what are </tspan><tspan x="0" y="28.8" font-family="'ITCFranklinGothicStd-Book'" font-size="12">the primary needs and opportu</tspan><tspan x="161.27" y="28.8" font-family="'ITCFranklinGothicStd-Book'" font-size="12">-</tspan><tspan x="0" y="43.2" font-family="'ITCFranklinGothicStd-Book'" font-size="12">nities for Downtown? </tspan></text>
	<rect x="254" y="247.6" fill="none" width="173" height="108"/>
	<text transform="matrix(1 0 0 1 254 255.8315)"><tspan x="0" y="0" font-family="'ITCFranklinGothicStd-Book'" font-size="12">What should Downtown Houston </tspan><tspan x="0" y="14.4" font-family="'ITCFranklinGothicStd-Book'" font-size="12">look like in the future? What </tspan><tspan x="0" y="28.8" font-family="'ITCFranklinGothicStd-Book'" font-size="12">kind of Downtown should we aim </tspan><tspan x="0" y="43.2" font-family="'ITCFranklinGothicStd-Book'" font-size="12">to become?</tspan></text>
	<rect x="254" y="349.1" fill="none" width="173" height="108"/>
	<text transform="matrix(1 0 0 1 254 357.332)"><tspan x="0" y="0" font-family="'ITCFranklinGothicStd-Book'" font-size="12">What are some big ideas for </tspan><tspan x="0" y="14.399" font-family="'ITCFranklinGothicStd-Book'" font-size="12">strategies and design directions </tspan><tspan x="0" y="28.799" font-family="'ITCFranklinGothicStd-Book'" font-size="12">that will bring us closer to the </tspan><tspan x="0" y="43.199" font-family="'ITCFranklinGothicStd-Book'" font-size="12">vision for Downtown Houston? </tspan></text>
	<rect x="254" y="451.5" fill="none" width="173" height="108"/>
	<text transform="matrix(1 0 0 1 254 459.7324)"><tspan x="0" y="0" font-family="'ITCFranklinGothicStd-Book'" font-size="12">What are the detailed design </tspan><tspan x="0" y="14.399" font-family="'ITCFranklinGothicStd-Book'" font-size="12">ideas, strategies and initiatives </tspan><tspan x="0" y="28.799" font-family="'ITCFranklinGothicStd-Book'" font-size="12">that will ensure the future we </tspan><tspan x="0" y="43.199" font-family="'ITCFranklinGothicStd-Book'" font-size="12">want?  </tspan></text>
	<rect x="254" y="554.5" fill="none" width="173" height="108"/>
	<text transform="matrix(1 0 0 1 254 562.7324)"><tspan x="0" y="0" font-family="'ITCFranklinGothicStd-Book'" font-size="12">The final report will include the </tspan><tspan x="0" y="14.399" font-family="'ITCFranklinGothicStd-Book'" font-size="12">design proposal as well as next </tspan><tspan x="0" y="28.799" font-family="'ITCFranklinGothicStd-Book'" font-size="12">steps for implementation.</tspan></text>
	<rect x="254" y="554.5" fill="none" width="173" height="108"/>
</g>
</svg>
