<?xml version="1.0" encoding="utf-8"?>
<!-- Generator: Adobe Illustrator 15.1.0, SVG Export Plug-In . SVG Version: 6.00 Build 0)  -->
<!DOCTYPE svg PUBLIC "-//W3C//DTD SVG 1.1//EN" "http://www.w3.org/Graphics/SVG/1.1/DTD/svg11.dtd">
<svg version="1.1" id="Layer_1" xmlns="http://www.w3.org/2000/svg" xmlns:xlink="http://www.w3.org/1999/xlink" x="0px" y="0px"
	 width="497px" height="553.5px" viewBox="-46 46.5 497 553.5" enable-background="new -46 46.5 497 553.5" xml:space="preserve">
<g id="background">
</g>
<g id="Layer_1_1_">
	<line fill="none" stroke="#686868" stroke-width="3" stroke-miterlimit="10" x1="196.5" y1="81.534" x2="196.5" y2="503.25"/>
	<rect x="60" y="-20.75" fill="none" width="109" height="21"/>
	<rect x="244" y="-20.75" fill="none" width="166" height="21"/>
	<rect x="235" y="82.15" fill="none" width="148" height="21"/>
	
		<circle onclick="#svg-three" fill="#E2E2E2" stroke="#94BF3A" stroke-width="3" stroke-miterlimit="10" cx="197" cy="81.534" r="21"/>
	<text transform="matrix(1 0 0 1 22.0815 82.6387)" fill="#424242" font-family="'ITCFranklinGothicStd-Demi'" font-size="18">Late Spring 2017</text>
	<rect x="235" y="187.55" fill="none" width="177" height="21"/>
	<text transform="matrix(1 0 0 1 235 82.6387)" fill="#424242" font-family="'ITCFranklinGothicStd-Demi'" font-size="18">Vision Development</text>
	
		<circle onclick="#svg-four" fill="#E2E2E2" stroke="#0085CA" stroke-width="3" stroke-miterlimit="10" cx="197" cy="503.25" r="21"/>
	<rect x="12.479" y="289.95" fill="none" width="150" height="21"/>
	<text transform="matrix(1 0 0 1 48.001 219.0229)" fill="#424242" font-family="'ITCFranklinGothicStd-Demi'" font-size="18">Summer 2017</text>
	<rect x="235" y="289.95" fill="none" width="150" height="21"/>
	<text transform="matrix(1 0 0 1 235 220.0229)" fill="#424242" font-family="'ITCFranklinGothicStd-Demi'" font-size="18">Concept Design</text>
	
		<circle onclick="#svg-five" fill="#E2E2E2" stroke="#FDBA13" stroke-width="3" stroke-miterlimit="10" cx="197" cy="216.918" r="21"/>
	<text transform="matrix(1 0 0 1 7.3218 367.7881)" fill="#424242" font-family="'ITCFranklinGothicStd-Demi'" font-size="18">Late Summer 2017</text>
	<rect x="235" y="393.35" fill="none" width="245" height="21"/>
	<text transform="matrix(1 0 0 1 235 367.7871)" fill="#424242" font-family="'ITCFranklinGothicStd-Demi'" font-size="18">Draft Proposal</text>
	
		<circle onclick="#svg-six" fill="#E2E2E2" stroke="#F18585" stroke-width="3" stroke-miterlimit="10" cx="197" cy="367.684" r="21"/>
	<text transform="matrix(1 0 0 1 85.8008 506.3535)" fill="#424242" font-family="'ITCFranklinGothicStd-Demi'" font-size="18">Fall 2017</text>
	<rect x="235" y="496.75" fill="none" width="150" height="21"/>
	<text transform="matrix(1 0 0 1 235 506.3535)" fill="#424242" font-family="'ITCFranklinGothicStd-Demi'" font-size="18">Final Report</text>
	<rect x="235" y="-0.75" fill="none" width="173" height="108"/>
	<rect x="235" y="100.55" fill="none" width="173" height="108"/>
	<rect x="235" y="205.85" fill="none" width="173" height="108"/>
	<text transform="matrix(1 0 0 1 235 101.5654)" fill="#424242" font-family="'ITCFranklinGothicStd-Book'" font-size="14">What should Downtown Houston </text>
	<text transform="matrix(1 0 0 1 235 115.9658)" fill="#424242" font-family="'ITCFranklinGothicStd-Book'" font-size="14">look like in the future? What </text>
	<text transform="matrix(1 0 0 1 235 130.3662)" fill="#424242" font-family="'ITCFranklinGothicStd-Book'" font-size="14">kind of Downtown should we aim </text>
	<text transform="matrix(1 0 0 1 235 144.7656)" fill="#424242" font-family="'ITCFranklinGothicStd-Book'" font-size="14">to become?</text>
	<rect x="235" y="307.35" fill="none" width="173" height="108"/>
	<text transform="matrix(1 0 0 1 235 238.0503)" fill="#424242" font-family="'ITCFranklinGothicStd-Book'" font-size="14">What are some big ideas for </text>
	<text transform="matrix(1 0 0 1 235 252.4497)" fill="#424242" font-family="'ITCFranklinGothicStd-Book'" font-size="14">strategies and design directions </text>
	<text transform="matrix(1 0 0 1 235 266.8491)" fill="#424242" font-family="'ITCFranklinGothicStd-Book'" font-size="14">that will bring us closer to the </text>
	<text transform="matrix(1 0 0 1 235 281.2495)" fill="#424242" font-family="'ITCFranklinGothicStd-Book'" font-size="14">vision for Downtown Houston? </text>
	<rect x="235" y="409.75" fill="none" width="173" height="108"/>
	<text transform="matrix(1 0 0 1 235 386.8164)" fill="#424242" font-family="'ITCFranklinGothicStd-Book'" font-size="14">What are the detailed design </text>
	<text transform="matrix(1 0 0 1 235 401.2158)" fill="#424242" font-family="'ITCFranklinGothicStd-Book'" font-size="14">ideas, strategies and initiatives </text>
	<text transform="matrix(1 0 0 1 235 415.6152)" fill="#424242" font-family="'ITCFranklinGothicStd-Book'" font-size="14">that will ensure the future we </text>
	<text transform="matrix(1 0 0 1 235 430.0156)" fill="#424242" font-family="'ITCFranklinGothicStd-Book'" font-size="14">want?  </text>
	<rect x="235" y="512.75" fill="none" width="173" height="108"/>
	<text transform="matrix(1 0 0 1 235 524.9824)" fill="#424242" font-family="'ITCFranklinGothicStd-Book'" font-size="14">The final report will include the </text>
	<text transform="matrix(1 0 0 1 235 539.3818)" fill="#424242" font-family="'ITCFranklinGothicStd-Book'" font-size="14">design proposal as well as next </text>
	<text transform="matrix(1 0 0 1 235 553.7812)" fill="#424242" font-family="'ITCFranklinGothicStd-Book'" font-size="14">steps for implementation.</text>
	<rect x="235" y="512.75" fill="none" width="173" height="108"/>
</g>
</svg>
