<?xml version="1.0" encoding="utf-8"?>
<!-- Generator: Adobe Illustrator 15.1.0, SVG Export Plug-In . SVG Version: 6.00 Build 0)  -->
<!DOCTYPE svg PUBLIC "-//W3C//DTD SVG 1.1//EN" "http://www.w3.org/Graphics/SVG/1.1/DTD/svg11.dtd">
<svg version="1.1" id="Layer_1" xmlns="http://www.w3.org/2000/svg" xmlns:xlink="http://www.w3.org/1999/xlink" x="0px" y="0px"
	 width="574px" height="553.5px" viewBox="-77 0 574 553.5" enable-background="new -77 0 574 553.5" xml:space="preserve">
<g id="background">
</g>
<line fill="none" stroke="#686868" stroke-width="3" stroke-miterlimit="10" x1="198.5" y1="59.534" x2="198.5" y2="481.25"/>
<rect x="60" y="-20.75" fill="none" width="109" height="21"/>
<rect x="244" y="-20.75" fill="none" width="166" height="21"/>
<rect x="237" y="60.15" fill="none" width="148" height="21"/>
<circle onclick="#svg-three" fill="#E2E2E2" stroke="#94BF3A" stroke-width="3" stroke-miterlimit="10" cx="199" cy="59.534" r="21"/>
<text transform="matrix(1 0 0 1 24.0815 60.6387)" fill="#424242" font-family="'Roboto-Bold'" font-size="18">Late Spring 2017</text>
<rect x="237" y="165.55" fill="none" width="177" height="21"/>
<text transform="matrix(1 0 0 1 237 60.6387)" fill="#424242" font-family="'Roboto-Bold'" font-size="18">Vision Development</text>
<circle onclick="#svg-four" fill="#E2E2E2" stroke="#0085CA" stroke-width="3" stroke-miterlimit="10" cx="199" cy="481.25" r="21"/>
<rect x="14.479" y="267.95" fill="none" width="150" height="21"/>
<text transform="matrix(1 0 0 1 50.001 197.0225)" fill="#424242" font-family="'Roboto-Bold'" font-size="18">Summer 2017</text>
<rect x="237" y="267.95" fill="none" width="150" height="21"/>
<text transform="matrix(1 0 0 1 237 198.0225)" fill="#424242" font-family="'Roboto-Bold'" font-size="18">Concept Design</text>
<circle onclick="#svg-five" fill="#E2E2E2" stroke="#FDBA13" stroke-width="3" stroke-miterlimit="10" cx="199" cy="194.918" r="21"/>
<text transform="matrix(1 0 0 1 9.3218 345.7881)" fill="#424242" font-family="'Roboto-Bold'" font-size="18">Late Summer 2017</text>
<rect x="237" y="371.35" fill="none" width="245" height="21"/>
<text transform="matrix(1 0 0 1 237 345.7871)" fill="#424242" font-family="'Roboto-Bold'" font-size="18">Draft Proposal</text>
<circle onclick="#svg-six" fill="#E2E2E2" stroke="#F18585" stroke-width="3" stroke-miterlimit="10" cx="199" cy="345.684" r="21"/>
<text transform="matrix(1 0 0 1 87.8008 484.3535)" fill="#424242" font-family="'Roboto-Bold'" font-size="18">Fall 2017</text>
<rect x="237" y="474.75" fill="none" width="150" height="21"/>
<text transform="matrix(1 0 0 1 237 484.3535)" fill="#424242" font-family="'Roboto-Bold'" font-size="18">Final Report</text>
<rect x="237" y="-22.75" fill="none" width="173" height="108"/>
<rect x="237" y="78.55" fill="none" width="173" height="108"/>
<rect x="237" y="183.85" fill="none" width="173" height="108"/>
<text transform="matrix(1 0 0 1 237 79.5654)" fill="#424242" font-family="'Roboto-Regular'" font-size="13">What should Downtown Houston </text>
<text transform="matrix(1 0 0 1 237 93.9658)" fill="#424242" font-family="'Roboto-Regular'" font-size="13">look like in the future? What </text>
<text transform="matrix(1 0 0 1 237 108.3662)" fill="#424242" font-family="'Roboto-Regular'" font-size="13">kind of Downtown should we aim </text>
<text transform="matrix(1 0 0 1 237 122.7656)" fill="#424242" font-family="'Roboto-Regular'" font-size="13">to become?</text>
<rect x="237" y="285.35" fill="none" width="173" height="108"/>
<text transform="matrix(1 0 0 1 237 216.0508)" fill="#424242" font-family="'Roboto-Regular'" font-size="13">What are some big ideas for </text>
<text transform="matrix(1 0 0 1 237 230.4492)" fill="#424242" font-family="'Roboto-Regular'" font-size="13">strategies and design directions </text>
<text transform="matrix(1 0 0 1 237 244.8496)" fill="#424242" font-family="'Roboto-Regular'" font-size="13">that will bring us closer to the </text>
<text transform="matrix(1 0 0 1 237 259.25)" fill="#424242" font-family="'Roboto-Regular'" font-size="13">vision for Downtown Houston? </text>
<rect x="237" y="387.75" fill="none" width="173" height="108"/>
<text transform="matrix(1 0 0 1 237 364.8164)" fill="#424242" font-family="'Roboto-Regular'" font-size="13">What are the detailed design </text>
<text transform="matrix(1 0 0 1 237 379.2158)" fill="#424242" font-family="'Roboto-Regular'" font-size="13">ideas, strategies and initiatives </text>
<text transform="matrix(1 0 0 1 237 393.6152)" fill="#424242" font-family="'Roboto-Regular'" font-size="13">that will ensure the future we </text>
<text transform="matrix(1 0 0 1 237 408.0156)" fill="#424242" font-family="'Roboto-Regular'" font-size="13">want?  </text>
<rect x="237" y="490.75" fill="none" width="173" height="108"/>
<text transform="matrix(1 0 0 1 237 502.9824)" fill="#424242" font-family="'Roboto-Regular'" font-size="13">The final report will include the </text>
<text transform="matrix(1 0 0 1 237 517.3818)" fill="#424242" font-family="'Roboto-Regular'" font-size="13">design proposal as well as next </text>
<text transform="matrix(1 0 0 1 237 531.7812)" fill="#424242" font-family="'Roboto-Regular'" font-size="13">steps for implementation.</text>
<rect x="237" y="490.75" fill="none" width="173" height="108"/>
</svg>
