<?xml version="1.0" encoding="utf-8"?>
<!-- Generator: Adobe Illustrator 15.1.0, SVG Export Plug-In . SVG Version: 6.00 Build 0)  -->
<!DOCTYPE svg PUBLIC "-//W3C//DTD SVG 1.1//EN" "http://www.w3.org/Graphics/SVG/1.1/DTD/svg11.dtd">
<svg version="1.1" id="Layer_1" xmlns="http://www.w3.org/2000/svg" xmlns:xlink="http://www.w3.org/1999/xlink" x="0px" y="0px"
	 width="272.5px" height="553.5px" viewBox="198 0 272.5 553.5" enable-background="new 198 0 272.5 553.5" xml:space="preserve">
<g id="background">
</g>
<line fill="none" stroke="#686868" stroke-width="3" stroke-miterlimit="10" x1="232.021" y1="40.534" x2="232.021" y2="462.25"/>
<rect x="60" y="-20.75" fill="none" width="109" height="21"/>
<rect x="244" y="-20.75" fill="none" width="166" height="21"/>
<rect x="270.521" y="47.15" fill="none" width="148" height="21"/>
<circle onclick="#svg-three" fill="#E2E2E2" stroke="#94BF3A" stroke-width="3" stroke-miterlimit="10" cx="232.521" cy="37.852" r="21"/>
<text transform="matrix(1 0 0 1 270.6553 32.25)" fill="#424242" font-family="'Roboto-Bold'" font-size="18">Late Spring 2017</text>
<rect x="270.521" y="161.55" fill="none" width="177" height="21"/>
<text transform="matrix(1 0 0 1 270.5215 49.6387)" fill="#424242" font-family="'Roboto-Bold'" font-size="14">Vision Development</text>
<circle onclick="#svg-four" fill="#E2E2E2" stroke="#0085CA" stroke-width="3" stroke-miterlimit="10" cx="232.521" cy="449.352" r="21"/>
<rect x="48" y="267.95" fill="none" width="150" height="21"/>
<text transform="matrix(1 0 0 1 270.6553 165.5498)" fill="#424242" font-family="'Roboto-Bold'" font-size="18">Summer 2017</text>
<rect x="270.521" y="251.95" fill="none" width="150" height="21"/>
<text transform="matrix(1 0 0 1 270.5215 182.0225)" fill="#424242" font-family="'Roboto-Bold'" font-size="14">Concept Design</text>
<circle onclick="#svg-five" fill="#E2E2E2" stroke="#FDBA13" stroke-width="3" stroke-miterlimit="10" cx="232.521" cy="171.151" r="21"/>
<text transform="matrix(1 0 0 1 270.6553 307.1025)" fill="#424242" font-family="'Roboto-Bold'" font-size="18">Late Summer 2017</text>
<rect x="270.521" y="337.35" fill="none" width="245" height="21"/>
<text transform="matrix(1 0 0 1 270.5215 326.1016)" fill="#424242" font-family="'Roboto-Bold'" font-size="14">Draft Plan</text>
<circle onclick="#svg-six" fill="#E2E2E2" stroke="#F18585" stroke-width="3" stroke-miterlimit="10" cx="232.521" cy="312.704" r="21"/>
<text transform="matrix(1 0 0 1 270.6553 443.75)" fill="#424242" font-family="'Roboto-Bold'" font-size="18">Fall 2017</text>
<rect x="270.521" y="450.75" fill="none" width="150" height="21"/>
<text transform="matrix(1 0 0 1 270.5215 463.3535)" fill="#424242" font-family="'Roboto-Bold'" font-size="14">Plan Launch</text>
<rect x="270.521" y="-35.75" fill="none" width="173" height="108"/>
<rect x="270.521" y="65.55" fill="none" width="173" height="108"/>
<rect x="270.521" y="164.85" fill="none" width="173" height="108"/>
<text transform="matrix(1 0 0 1 270.5215 64.5654)" fill="#424242" font-family="'Roboto-Regular'" font-size="13">What should Downtown Houston </text>
<text transform="matrix(1 0 0 1 270.5215 78.9658)" fill="#424242" font-family="'Roboto-Regular'" font-size="13">look like in the future? What </text>
<text transform="matrix(1 0 0 1 270.5215 93.3662)" fill="#424242" font-family="'Roboto-Regular'" font-size="13">kind of Downtown should we aim </text>
<text transform="matrix(1 0 0 1 270.5215 107.7656)" fill="#424242" font-family="'Roboto-Regular'" font-size="13">to become?</text>
<rect x="270.521" y="247.35" fill="none" width="173" height="108"/>
<text transform="matrix(1 0 0 1 270.5215 197.0508)" fill="#424242" font-family="'Roboto-Regular'" font-size="13">What are some big ideas for </text>
<text transform="matrix(1 0 0 1 270.5215 211.4492)" fill="#424242" font-family="'Roboto-Regular'" font-size="13">strategies and design directions </text>
<text transform="matrix(1 0 0 1 270.5215 225.8496)" fill="#424242" font-family="'Roboto-Regular'" font-size="13">that will bring us closer to the </text>
<text transform="matrix(1 0 0 1 270.5215 240.25)" fill="#424242" font-family="'Roboto-Regular'" font-size="13">vision for Downtown Houston? </text>
<text transform="matrix(1 0 0 1 270.5215 340.1309)" fill="#424242" font-family="'Roboto-Regular'" font-size="13">What are the detailed design </text>
<text transform="matrix(1 0 0 1 270.5215 354.5303)" fill="#424242" font-family="'Roboto-Regular'" font-size="13">ideas, strategies and initiatives </text>
<text transform="matrix(1 0 0 1 270.5215 368.9297)" fill="#424242" font-family="'Roboto-Regular'" font-size="13">that will ensure the future we </text>
<text transform="matrix(1 0 0 1 270.5215 383.3301)" fill="#424242" font-family="'Roboto-Regular'" font-size="13">want?  </text>
<rect x="270.521" y="466.75" fill="none" width="173" height="108"/>
<text transform="matrix(1 0 0 1 270.5215 478.9824)" fill="#424242" font-family="'Roboto-Regular'" font-size="13">The final plan will include the </text>
<text transform="matrix(1 0 0 1 270.5215 493.3818)" fill="#424242" font-family="'Roboto-Regular'" font-size="13">design proposal as well as next </text>
<text transform="matrix(1 0 0 1 270.5215 507.7812)" fill="#424242" font-family="'Roboto-Regular'" font-size="13">steps for implementation.</text>
</svg>
